<?xml version="1.0" encoding="UTF-8" standalone="no"?>
<svg
   xmlns:dc="http://purl.org/dc/elements/1.1/"
   xmlns:cc="http://creativecommons.org/ns#"
   xmlns:rdf="http://www.w3.org/1999/02/22-rdf-syntax-ns#"
   xmlns:svg="http://www.w3.org/2000/svg"
   xmlns="http://www.w3.org/2000/svg"
   xmlns:sodipodi="http://sodipodi.sourceforge.net/DTD/sodipodi-0.dtd"
   xmlns:inkscape="http://www.inkscape.org/namespaces/inkscape"
   width="163.0134mm"
   height="163.0134mm"
   viewBox="0 0 163.0134 163.0134"
   version="1.1"
   id="svg8"
   inkscape:version="1.0.2 (e86c870879, 2021-01-15)"
   sodipodi:docname="shelterlogo.svg">
  <defs
     id="defs2" />
  <sodipodi:namedview
     id="base"
     pagecolor="#ffffff"
     bordercolor="#666666"
     borderopacity="1.0"
     inkscape:pageopacity="0.0"
     inkscape:pageshadow="2"
     inkscape:zoom="0.35"
     inkscape:cx="203.95618"
     inkscape:cy="102.73403"
     inkscape:document-units="mm"
     inkscape:current-layer="layer1"
     inkscape:document-rotation="0"
     showgrid="false"
     fit-margin-top="0"
     fit-margin-left="0"
     fit-margin-right="0"
     fit-margin-bottom="0"
     inkscape:window-width="1920"
     inkscape:window-height="1016"
     inkscape:window-x="0"
     inkscape:window-y="27"
     inkscape:window-maximized="1" />
  <metadata
     id="metadata5">
    <rdf:RDF>
      <cc:Work
         rdf:about="">
        <dc:format>image/svg+xml</dc:format>
        <dc:type
           rdf:resource="http://purl.org/dc/dcmitype/StillImage" />
        <dc:title></dc:title>
      </cc:Work>
    </rdf:RDF>
  </metadata>
  <g
     inkscape:label="Layer 1"
     inkscape:groupmode="layer"
     id="layer1"
     transform="translate(-27.446869,-60.492477)">
    <circle
       style="fill:none;stroke:#a50000;stroke-width:3.518;stroke-linecap:round;stroke-linejoin:round;stroke-miterlimit:4;stroke-dasharray:none;stroke-opacity:1;paint-order:stroke markers fill"
       id="path833"
       cx="108.95357"
       cy="141.99918"
       r="77.005913" />
    <path
       id="circle1016"
       style="fill:#810000;fill-opacity:0.952941;stroke:none;stroke-width:1.61308;stroke-linecap:round;stroke-linejoin:round;stroke-miterlimit:4;stroke-dasharray:none;stroke-opacity:1;paint-order:stroke markers fill"
       d="m 108.24791,79.823977 a 62.310751,62.310751 0 0 0 -62.198574,62.310523 62.310751,62.310751 0 0 0 62.310464,62.311 62.310751,62.310751 0 0 0 62.31101,-62.311 62.310751,62.310751 0 0 0 -62.31101,-62.310523 62.310751,62.310751 0 0 0 -0.11189,0 z m -0.7596,13.95849 c 2.92182,-0.08559 5.87957,1.26067 8.39022,3.873098 2.38054,2.477025 4.09946,5.875535 4.87486,9.637865 1.10134,5.34375 0.11743,10.71917 -2.61025,14.26001 -0.7897,1.02514 -1.61607,1.79329 -2.67961,2.49154 -0.21207,0.13926 -1.38537,0.73349 -1.6027,0.81161 -0.63627,0.22881 -1.14394,0.36755 -1.69623,0.46333 -1.9986,0.34655 -4.10167,-0.019 -6.09672,-1.05903 -2.19689,-1.14522 -4.21942,-3.10605 -5.7432,-5.5688 -0.351011,-0.56723 -0.534858,-0.89854 -0.874635,-1.5754 -1.746311,-3.47868 -2.513974,-7.61961 -2.128009,-11.47852 0.162412,-1.6238 0.542846,-3.23851 1.088427,-4.6201 0.933588,-2.364126 2.332537,-4.256008 4.081107,-5.518896 0.51206,-0.369825 0.78845,-0.53169 1.43778,-0.842069 0.6547,-0.312949 0.97643,-0.434717 1.54807,-0.584669 0.66458,-0.174323 1.33663,-0.270216 2.01089,-0.289969 z m 30.32604,12.111543 c 1.81046,0.038 3.59794,0.6669 5.17376,1.84856 2.74379,2.05748 4.65556,5.68549 5.1475,9.76811 0.44127,3.66201 -0.24936,7.41487 -1.92052,10.43472 -1.08931,1.96845 -2.53369,3.53513 -4.24922,4.60958 -0.33162,0.20765 -1.22151,0.65491 -1.55649,0.78218 -1.31327,0.49882 -2.61224,0.68119 -3.94349,0.55367 -1.22593,-0.1174 -2.45213,-0.51912 -3.56369,-1.16723 -2.48308,-1.44775 -4.44869,-4.10761 -5.47687,-7.41158 -1.07255,-3.44651 -1.01577,-7.39038 0.15654,-10.86809 0.96381,-2.85915 2.72204,-5.33132 4.85647,-6.82796 0.90668,-0.63574 1.91817,-1.12349 2.91075,-1.40415 0.81474,-0.23036 1.64232,-0.33509 2.46526,-0.31781 z m -60.387827,2.8104 c 1.872516,-3.6e-4 3.863722,0.48219 5.814103,1.42569 2.932802,1.41874 5.600358,3.80458 7.581775,6.78067 0.602205,0.90452 0.921102,1.47012 1.436718,2.54879 0.507728,1.06219 0.735035,1.63185 1.038541,2.60554 0.993286,3.18653 1.027675,6.39299 0.09718,9.02637 -0.714044,2.02075 -1.903876,3.55807 -3.635662,4.69835 -0.213107,0.14032 -1.296762,0.69323 -1.489771,0.76013 -0.04259,0.0146 -0.186025,0.0662 -0.318867,0.11399 -1.293812,0.46574 -2.825861,0.63115 -4.388944,0.47383 -1.530442,-0.15405 -3.153511,-0.63614 -4.737757,-1.4073 -1.418674,-0.69056 -2.949707,-1.74469 -4.215595,-2.90233 -3.459711,-3.16385 -5.821006,-7.54376 -6.388801,-11.85043 -0.591765,-4.48841 0.757409,-8.35879 3.665071,-10.51405 0.519448,-0.38504 0.682734,-0.48032 1.429886,-0.83838 0.767585,-0.36781 0.983506,-0.44931 1.647373,-0.61935 0.787296,-0.20165 1.613605,-0.30136 2.464749,-0.30152 z m 31.773247,22.79838 c 2.05139,-0.0321 4.07782,0.39735 6.20598,1.29226 1.5732,0.66152 3.21249,1.55479 5.82409,3.17391 2.11341,1.31025 2.66123,1.64631 3.34674,2.055 2.55089,1.52075 4.42021,2.46787 6.54798,3.31732 0.73002,0.29144 2.21532,0.79977 2.95013,1.00965 1.94341,0.55506 3.23444,1.01016 4.67839,1.64947 4.54229,2.01107 8.11864,4.96723 10.26872,8.48792 0.60155,0.985 1.17253,2.20921 1.51709,3.25166 1.27387,3.85418 0.82708,7.86062 -1.27544,11.43859 -1.33173,2.26627 -2.95563,3.88895 -5.12071,5.11702 -0.26236,0.14879 -1.43951,0.71862 -1.66155,0.80425 -0.0477,0.0187 -0.23821,0.0933 -0.42287,0.166 -0.73612,0.29004 -1.73987,0.6037 -2.72845,0.8531 -1.16556,0.29405 -2.28858,0.51985 -4.8528,0.97445 -2.4686,0.43765 -3.39756,0.61908 -4.61326,0.90195 -2.47693,0.57632 -4.29803,1.19166 -6.16028,2.0818 -1.11999,0.53533 -1.92294,1.00606 -3.0158,1.76661 -1.35466,0.94273 -2.38341,1.77049 -4.95365,3.98656 -1.54058,1.32828 -1.71677,1.47809 -2.4427,2.07812 -1.71685,1.41912 -3.00005,2.33725 -4.47824,3.20386 -0.48123,0.28215 -1.94973,0.97577 -2.43533,1.15042 -1.24046,0.44611 -2.36056,0.69219 -3.50538,0.77063 -3.252146,0.22286 -6.878669,-1.00067 -9.540624,-3.21856 -2.856734,-2.38018 -4.738612,-5.84519 -5.423288,-9.98716 -0.625636,-3.78483 -0.190285,-7.96988 1.256009,-12.07947 0.268181,-0.76199 0.446461,-1.21454 0.834198,-2.11804 0.390918,-0.91089 0.583632,-1.41046 0.922432,-2.39173 0.886082,-2.5664 1.449323,-5.00802 2.264085,-9.81276 1.006134,-5.93336 1.406567,-7.75066 2.206294,-10.01709 0.688173,-1.95026 1.446013,-3.38172 2.488899,-4.70152 1.017849,-1.28811 2.141215,-2.24219 3.615685,-3.06937 0.65528,-0.36765 1.90665,-0.91269 2.81198,-1.2245 1.68544,-0.58112 3.29614,-0.88535 4.89167,-0.91035 z m -40.58214,7.52135 c 4.128803,-0.0114 8.527385,2.10801 11.718568,5.69172 1.44732,1.62535 2.589202,3.54748 3.265319,5.49525 0.68002,1.95902 0.892811,3.90957 0.626164,5.74267 -0.332478,2.28564 -1.490015,4.28509 -3.248506,5.61134 -0.500602,0.37757 -0.69419,0.49335 -1.393637,0.83525 -0.355603,0.17409 -0.681311,0.32844 -0.723874,0.34302 -0.04259,0.0146 -0.176764,0.0617 -0.297854,0.10454 -2.951189,1.0423 -6.692206,0.61424 -10.078564,-1.15305 -5.667611,-2.95786 -9.434233,-8.96079 -9.056316,-14.43285 0.165095,-2.39044 1.169379,-4.50729 2.841393,-5.98956 1.45524,-1.29009 3.373814,-2.06016 5.525195,-2.21733 0.272421,-0.0199 0.546855,-0.0302 0.822112,-0.031 z" />
    <path
       style="fill:#460000;fill-opacity:1;stroke:#ffffff;stroke-width:2.42477;stroke-miterlimit:4;stroke-dasharray:none;stroke-opacity:0.981239"
       d="m 142.97379,173.5606 c -0.0482,0.0189 -0.24054,0.0941 -0.42722,0.1676 -0.74409,0.29319 -1.75885,0.6106 -2.75815,0.86271 -1.17821,0.29724 -2.3133,0.52508 -4.90533,0.98461 -2.49537,0.4424 -3.43446,0.62606 -4.66335,0.91199 -2.5038,0.58257 -4.34468,1.20472 -6.22713,2.10451 -1.13214,0.54114 -1.94394,1.01655 -3.04866,1.78535 -1.36936,0.95296 -2.40905,1.78972 -5.00717,4.02984 -1.55729,1.34268 -1.7353,1.49413 -2.4691,2.10067 -1.73548,1.43451 -3.03266,2.36251 -4.52688,3.23852 -0.48646,0.28521 -1.97112,0.98657 -2.46198,1.16311 -1.25392,0.45094 -2.38585,0.69987 -3.54309,0.77915 -3.287417,0.22528 -6.953473,-1.01143 -9.644302,-3.25338 -2.887721,-2.40599 -4.789733,-5.90888 -5.481836,-10.09577 -0.632421,-3.82589 -0.192646,-8.05632 1.269345,-12.21049 0.27108,-0.77025 0.451304,-1.22789 0.843246,-2.14118 0.395159,-0.92077 0.58986,-1.42567 0.932336,-2.41758 0.895693,-2.59424 1.465187,-5.06236 2.288786,-9.91921 1.017048,-5.99773 1.421567,-7.83447 2.229969,-10.12548 0.695637,-1.9714 1.461704,-3.41855 2.515908,-4.75267 1.028896,-1.30209 2.164868,-2.26624 3.655338,-3.10239 0.66238,-0.37164 1.92725,-0.92291 2.84239,-1.2381 3.89425,-1.3427 7.39351,-1.22232 11.21796,0.38589 1.59026,0.6687 3.24757,1.57193 5.88749,3.20861 2.13634,1.32447 2.6897,1.66432 3.38265,2.07744 2.57855,1.53725 4.46822,2.49457 6.61907,3.35324 0.73794,0.2946 2.23936,0.80844 2.98214,1.02059 1.9645,0.56107 3.26951,1.02122 4.72912,1.66746 4.59156,2.0329 8.20666,5.02108 10.38007,8.57997 0.60806,0.99568 1.18532,2.23275 1.53361,3.28652 1.28769,3.89598 0.83614,7.94594 -1.2892,11.56271 -1.34617,2.29086 -2.98776,3.93131 -5.17634,5.17271 -0.2652,0.1504 -1.45525,0.72649 -1.67969,0.81305 z m -2.09407,-40.19402 c -1.32752,0.50423 -2.64051,0.68858 -3.98621,0.55969 -1.23922,-0.11868 -2.47878,-0.52463 -3.60241,-1.17977 -2.51001,-1.46345 -4.49693,-4.15232 -5.53626,-7.49212 -1.08418,-3.4839 -1.02675,-7.47057 0.15829,-10.98601 0.97426,-2.89016 2.75159,-5.38888 4.90919,-6.90176 0.9165,-0.64264 1.93874,-1.13586 2.94208,-1.41958 2.63551,-0.74515 5.40496,-0.19024 7.72192,1.54719 2.77355,2.0798 4.70618,5.74718 5.20346,9.87409 0.44605,3.70173 -0.25223,7.49545 -1.94152,10.54806 -1.10113,1.98979 -2.56102,3.57356 -4.29517,4.65966 -0.33521,0.20991 -1.23474,0.66188 -1.57337,0.79053 z m -62.215482,29.72503 c -0.04304,0.0147 -0.17833,0.0624 -0.300733,0.10564 -2.983199,1.0536 -6.764931,0.62098 -10.188022,-1.16548 -5.729088,-2.98995 -9.536631,-9.05783 -9.154611,-14.58925 0.166881,-2.41636 1.182068,-4.5564 2.872224,-6.05474 1.471025,-1.30407 3.410613,-2.08237 5.585334,-2.24125 4.405973,-0.32188 9.235396,1.85824 12.676255,5.72232 1.463016,1.64298 2.617503,3.58565 3.300958,5.55455 0.68739,1.98026 0.902336,3.95211 0.632796,5.8051 -0.336084,2.31043 -1.506036,4.3314 -3.283598,5.67204 -0.506037,0.38165 -0.701644,0.49892 -1.408677,0.84453 -0.359459,0.17599 -0.688896,0.33179 -0.731926,0.34654 z m 35.379002,-38.29769 c -0.64316,0.23129 -1.15617,0.37139 -1.71445,0.4682 -2.02027,0.35031 -4.14665,-0.0189 -6.16334,-1.07017 -2.22072,-1.15763 -4.26476,-3.13974 -5.80508,-5.6292 -0.35482,-0.57339 -0.540948,-0.90868 -0.88441,-1.59288 -1.765265,-3.51641 -2.541289,-7.70215 -2.151134,-11.60289 0.164173,-1.64142 0.548665,-3.27353 1.100166,-4.6701 0.943722,-2.38976 2.358058,-4.302334 4.125588,-5.578922 0.5176,-0.373838 0.79696,-0.537452 1.45332,-0.851199 0.6618,-0.316344 0.98701,-0.439096 1.56486,-0.590674 3.58276,-0.939801 7.39028,0.371908 10.51384,3.622079 2.40635,2.503889 4.14394,5.939136 4.92775,9.742266 1.11328,5.40171 0.11863,10.83536 -2.63864,14.41461 -0.79828,1.03625 -1.63347,1.81292 -2.70853,2.51876 -0.21438,0.14076 -1.40025,0.74115 -1.61994,0.82012 z m -25.869131,11.82031 c -0.04306,0.0147 -0.188013,0.0666 -0.322295,0.11495 -1.307846,0.47079 -2.856605,0.63798 -4.436649,0.47894 -1.547036,-0.15572 -3.187388,-0.64297 -4.788817,-1.4225 -1.434063,-0.69805 -2.981824,-1.76362 -4.261451,-2.93382 -3.49723,-3.19816 -5.884075,-7.62546 -6.458037,-11.97884 -0.598187,-4.53709 0.765494,-8.44913 3.704701,-10.62776 0.525086,-0.38921 0.689979,-0.48595 1.44524,-0.8479 0.775901,-0.3718 0.994109,-0.45383 1.665174,-0.62571 2.54669,-0.6523 5.501035,-0.25128 8.368726,1.13597 2.96461,1.43413 5.661369,3.84587 7.664278,6.85425 0.608736,0.91431 0.931195,1.48641 1.452404,2.57678 0.513236,1.0737 0.742546,1.64918 1.049344,2.63342 1.00406,3.22111 1.039028,6.46239 0.09844,9.12434 -0.721789,2.04266 -1.924454,3.59701 -3.675026,4.74968 -0.215417,0.14184 -1.310878,0.7006 -1.505981,0.76822 z"
       id="path917" />
  </g>
</svg>
